<svg width="200" height="256" viewBox="0 0 200 256" fill="none" xmlns="http://www.w3.org/2000/svg">
<rect width="200" height="256" fill="#F4F4F4"/>
<path d="M66.4 94.4H133.6V168H140V88H60V168H127.2V161.6H66.4V94.4Z" fill="#DEDEDE"/>
<path fill-rule="evenodd" clip-rule="evenodd" d="M124 128C124 141.255 113.255 152 100 152C86.7452 152 76 141.255 76 128C76 114.745 86.7452 104 100 104C113.255 104 124 114.745 124 128ZM117.6 128C117.6 137.72 109.72 145.6 100 145.6C90.2798 145.6 82.4 137.72 82.4 128C82.4 118.28 90.2798 110.4 100 110.4C109.72 110.4 117.6 118.28 117.6 128Z" fill="#DEDEDE"/>
</svg>
