<svg viewBox="0 0 32 32" fill="none" xmlns="http://www.w3.org/2000/svg">
<path d="M17.7493 7.25903H12.7138L12.6928 7.05263V6H11.2451V9.98349H12.6928V8.72446H12.9236H17.7493V7.25903Z" fill="currentColor"/>
<path d="M26.5405 7.25903H21.3162V7.05263V6H19.8476V9.98349H21.3162V8.72446H21.526H25.0719V8.93086V24.5552H24.862H7.46868V24.3488V8.72446H7.67849H9.41993V7.25903H6V26H26.5405" fill="currentColor"/>
<path d="M12.8187 12.5222H9.86035V14.5036H12.8187V12.5222Z" fill="currentColor"/>
<path d="M17.7494 12.5222H14.791V14.5036H17.7494V12.5222Z" fill="currentColor"/>
<path d="M22.68 12.5222H19.7217V14.5036H22.68V12.5222Z" fill="currentColor"/>
<path d="M12.8187 16.3818H9.86035V18.3633H12.8187V16.3818Z" fill="currentColor"/>
<path d="M17.7494 16.3818H14.791V18.3633H17.7494V16.3818Z" fill="currentColor"/>
<path d="M22.68 16.3818H19.7217V18.3633H22.68V16.3818Z" fill="currentColor"/>
<path d="M12.8187 20.2621H9.86035V22.2435H12.8187V20.2621Z" fill="currentColor"/>
<path d="M17.7494 20.2621H14.791V22.2435H17.7494V20.2621Z" fill="currentColor"/>
<path d="M22.68 20.2621H19.7217V22.2435H22.68V20.2621Z" fill="currentColor"/>
</svg>
