<svg viewBox="0 0 32 32" fill="currentColor" xmlns="http://www.w3.org/2000/svg">
<path d="M11.3333 10.6667H26.1243L28 12.6667L25.5023 20H11.0335L6.66666 8.00002H2.66666V6.66669H7.50653L12 18.6667H24.5408L26.4832 12.9795L25.5425 12H11.8165L11.3333 10.6667Z" fill="currentColor"/>
<path fill-rule="evenodd" clip-rule="evenodd" d="M22.6667 25.3334C21.9303 25.3334 21.3333 24.7364 21.3333 24C21.3333 23.2636 21.9303 22.6667 22.6667 22.6667C23.403 22.6667 24 23.2636 24 24C24 24.7364 23.403 25.3334 22.6667 25.3334ZM22.6667 26.6667C21.1939 26.6667 20 25.4728 20 24C20 22.5273 21.1939 21.3334 22.6667 21.3334C24.1394 21.3334 25.3333 22.5273 25.3333 24C25.3333 25.4728 24.1394 26.6667 22.6667 26.6667Z" fill="currentColor"/>
<path fill-rule="evenodd" clip-rule="evenodd" d="M13.3333 25.3334C12.5969 25.3334 12 24.7364 12 24C12 23.2636 12.5969 22.6667 13.3333 22.6667C14.0697 22.6667 14.6667 23.2636 14.6667 24C14.6667 24.7364 14.0697 25.3334 13.3333 25.3334ZM13.3333 26.6667C11.8606 26.6667 10.6667 25.4728 10.6667 24C10.6667 22.5273 11.8606 21.3334 13.3333 21.3334C14.8061 21.3334 16 22.5273 16 24C16 25.4728 14.8061 26.6667 13.3333 26.6667Z" fill="currentColor"/>
</svg>
