<svg viewBox="0 0 15 12" fill="currentColor" xmlns="http://www.w3.org/2000/svg">
<path d="M4.96931 6.6773L5.11931 6.67789L5.12062 6.5279L5.15852 2.17621C5.16377 1.57355 5.32611 1.15705 5.6176 0.894388C5.91405 0.627252 6.35264 0.48326 6.96322 0.48566L12.7002 0.508203C13.3051 0.51058 13.7469 0.658137 14.0386 0.927478C14.3256 1.19253 14.4805 1.61041 14.4754 2.20702L14.4391 6.37278C14.4337 6.98901 14.276 7.41985 13.9983 7.69434C13.7216 7.96778 13.2814 8.11817 12.6457 8.11567L6.88514 8.09304L6.73514 8.09245L6.73384 8.24244L6.70539 11.5087L5.12838 11.5025C5.09632 11.5024 5.07748 11.4798 5.0777 11.4548L5.10569 8.24185L5.10699 8.09186L4.957 8.09127L2.02347 8.07974C1.96667 8.07952 1.91355 8.05723 1.86646 8.01512L0.50896 6.65978L4.96931 6.6773ZM6.74871 6.5343L6.74741 6.68429L6.8974 6.68488L12.6698 6.70756L12.6757 6.70759L12.8257 6.70817L12.827 6.55818L12.8662 2.06706L12.8675 1.91707L12.7175 1.91648L5.97509 1.88998L5.60837 1.88854L5.86773 2.14656L6.71542 2.98983C6.7568 3.03575 6.77869 3.0924 6.77827 3.14126L6.74871 6.5343Z" fill="currentColor" stroke="currentColor" stroke-width="0.3"/>
</svg>
