<svg viewBox="0 0 16 16" fill="none" xmlns="http://www.w3.org/2000/svg">
<path d="M14.3789 3.51036C14.0674 3.21838 13.6099 3.07239 13.0176 3.07239H7.59741C6.99951 3.07239 6.54621 3.21838 6.23192 3.51036C5.91762 3.80234 5.75905 4.25154 5.75618 4.85796L5.73633 9.0636H1.1767L2.71158 10.619C2.77835 10.6807 2.86198 10.72 2.95697 10.72H5.72851L5.71385 13.8251C5.71335 13.9318 5.79677 14.016 5.90294 14.016H7.53457L7.55016 10.7144H12.9927C13.6129 10.7144 14.0718 10.5628 14.3694 10.2596C14.667 9.95638 14.82 9.49595 14.8229 8.8783L14.8419 4.85234C14.8448 4.25154 14.6904 3.80234 14.3789 3.51036ZM7.55795 9.0636L7.57343 5.78444C7.57385 5.6946 7.53516 5.60475 7.47401 5.53737L6.66763 4.7232H13.0377L13.0172 9.0636H7.55795Z" fill="currentColor"/>
</svg>
