<svg viewBox="0 0 16 16" fill="currentColor" xmlns="http://www.w3.org/2000/svg">
<path fill-rule="evenodd" clip-rule="evenodd" d="M8.00003 12.5C10.4853 12.5 12.5 10.4853 12.5 8.00004C12.5 6.93753 12.1318 5.96103 11.516 5.1912C11.3072 4.93017 11.0699 4.6929 10.8089 4.48409C10.039 3.86828 9.06254 3.50004 8.00003 3.50004C5.51475 3.50004 3.50003 5.51476 3.50003 8.00004C3.50003 9.06255 3.86827 10.039 4.48408 10.8089C4.69289 11.0699 4.93016 11.3072 5.19119 11.516C5.96103 12.1318 6.93753 12.5 8.00003 12.5ZM8.00003 14C11.3137 14 14 11.3137 14 8.00004C14 6.52319 13.4665 5.17096 12.5816 4.12562C12.3659 3.8708 12.1293 3.63422 11.8745 3.41851C10.8291 2.53362 9.47688 2.00004 8.00003 2.00004C4.68632 2.00004 2.00003 4.68633 2.00003 8.00004C2.00003 9.47689 2.53361 10.8291 3.41851 11.8745C3.63421 12.1293 3.8708 12.3659 4.12561 12.5816C5.17095 13.4665 6.52318 14 8.00003 14Z" fill="currentColor"/>
<path d="M5.29287 9.96458L5.99997 10.6717L11.516 5.1912C11.3072 4.93017 11.0699 4.6929 10.8089 4.48409L5.29287 9.96458Z" fill="currentColor"/>
<path d="M4.12561 12.5816C3.8708 12.3659 3.63421 12.1293 3.41851 11.8745L1.64648 13.6465L2.35359 14.3536L4.12561 12.5816Z" fill="currentColor"/>
<path d="M11.8745 3.41851C12.1293 3.63422 12.3659 3.8708 12.5816 4.12562L14.3536 2.35359L13.6465 1.64648L11.8745 3.41851Z" fill="currentColor"/>
</svg>
