<svg viewBox="0 0 32 32" fill="none" xmlns="http://www.w3.org/2000/svg">
<path d="M18.2463 20.2081L18.1181 20.0799L18.0112 20.2081L13.9719 24.2261L11.3431 24.5467L7.45332 20.6355L7.7739 18.0067L11.7919 13.9887L11.9201 13.8605L11.7919 13.7537L11.0652 13.0056L10.937 12.8988L10.8088 13.0056L6.49156 17.3228L6.47019 17.3656L6.44882 17.4297L6 21.063V21.1485L6.06412 21.2126L10.7874 25.9359L10.8515 26L10.937 25.9786L14.5489 25.5298H14.613L14.6558 25.4871L18.973 21.1699L19.1012 21.0416L18.973 20.9348L18.2463 20.2081Z" fill="currentColor"/>
<path d="M24.9359 11.7874L20.2126 7.06412L20.1485 7H20.063L16.4297 7.44882L16.3656 7.47019L16.3228 7.49156L12.0056 11.8088L11.8987 11.937L12.0056 12.0652L12.7536 12.7919L12.8605 12.9201L12.9887 12.7919L17.0067 8.7739L19.6355 8.45332L23.5467 12.3431L23.2261 14.9719L19.2081 19.0112L19.0798 19.1181L19.2081 19.2463L19.9347 19.973L20.0416 20.1012L20.1698 19.973L24.487 15.6558L24.5298 15.613V15.5489L24.9786 11.937L25 11.8515L24.9359 11.7874Z" fill="currentColor"/>
<path d="M11.0011 19.9944L11.1294 20.1226L11.856 20.8493L11.9843 20.9561L12.1125 20.8493L19.4218 13.5186L19.5501 13.4117L19.4218 13.2835L18.6952 12.5568L18.5669 12.4286L18.4387 12.5568L11.1294 19.8661L11.0011 19.9944Z" fill="currentColor"/>
</svg>
