<svg viewBox="0 0 32 32" fill="currentColor" xmlns="http://www.w3.org/2000/svg">
<path d="M8.81933 8.81936C8.41426 9.22443 8.04649 9.6607 7.71857 10.1228C6.70165 11.5557 6.06805 13.2367 5.89392 15.0046C5.66363 17.3427 6.25118 19.6883 7.55644 21.6418C8.8617 23.5953 10.8039 25.0357 13.0522 25.7177C15.3004 26.3997 17.7156 26.281 19.8861 25.382C22.0567 24.4829 23.8484 22.859 24.9559 20.787C26.0634 18.715 26.4182 16.3231 25.9598 14.0189C25.5015 11.7146 24.2583 9.64055 22.4422 8.1501C21.0689 7.02308 19.4323 6.28248 17.7 5.98832C17.1414 5.89346 16.5728 5.84503 16 5.84503V7.53564L17.7 7.71769C19.0367 7.99207 20.2959 8.58782 21.3638 9.46422C22.8758 10.7052 23.9109 12.432 24.2925 14.3505C24.6741 16.269 24.3787 18.2605 23.4566 19.9856C22.5345 21.7108 21.0428 23.0628 19.2356 23.8114C17.4284 24.5599 15.4175 24.6587 13.5456 24.0909C11.6738 23.5231 10.0567 22.3238 8.96994 20.6973C7.88319 19.0709 7.394 17.118 7.58573 15.1713C7.72114 13.7964 8.19026 12.4848 8.94142 11.3456L9.99675 9.99677L8.81933 8.81936Z" fill="currentColor"/>
</svg>
