<svg viewBox="0 0 16 16" fill="currentColor" xmlns="http://www.w3.org/2000/svg">
<path fill-rule="evenodd" clip-rule="evenodd" d="M2.02939 6.31919C2.02348 7.36352 2.29964 8.39077 2.82989 9.2984L6.52922 15.6133H9.79725L10.5173 14.3896H7.25294L3.91792 8.68921C3.49524 7.96814 3.27508 7.15244 3.27897 6.32355C3.28286 5.49466 3.51067 4.68092 3.94011 3.96361C4.36957 3.24625 4.98581 2.6502 5.72782 2.23562C6.46985 1.82102 7.31137 1.6026 8.16821 1.6026C9.02505 1.6026 9.86657 1.82102 10.6086 2.23562C11.3506 2.6502 11.9669 3.24625 12.3963 3.96361C12.8258 4.68092 13.0536 5.49466 13.0575 6.32355C13.0613 7.15244 12.8412 7.96814 12.4185 8.68921L9.56145 13.559H10.9944L13.4908 9.2984C14.0208 8.39122 14.2969 7.36453 14.2913 6.32071C14.2857 5.27689 13.9984 4.25309 13.4587 3.35138C12.919 2.44972 12.1458 1.70187 11.2168 1.18179C10.2878 0.661735 9.23476 0.387406 8.16325 0.385742C7.09122 0.386345 6.03777 0.659903 5.10793 1.17952C4.17805 1.69917 3.404 2.44691 2.86356 3.34875C2.32308 4.25064 2.0353 5.27486 2.02939 6.31919Z" fill="currentColor"/>
<path fill-rule="evenodd" clip-rule="evenodd" d="M8.16336 3.68076C7.6218 3.68076 7.09195 3.83669 6.64076 4.12947C6.18952 4.42229 5.83691 4.83909 5.62845 5.32785C5.41996 5.81668 5.36531 6.35493 5.47168 6.87428C5.57804 7.39358 5.84042 7.86977 6.22469 8.24295C6.60889 8.61608 7.0977 8.86955 7.62899 8.97218C8.16027 9.07481 8.71101 9.02218 9.2118 8.82073C9.71264 8.61926 10.1417 8.2777 10.4439 7.83835C10.7463 7.39894 10.908 6.88168 10.908 6.35203C10.908 5.64165 10.6174 4.96158 10.102 4.46111C9.5869 3.96082 8.88943 3.68076 8.16336 3.68076ZM8.16336 7.79954C7.86612 7.79954 7.576 7.71391 7.32975 7.55411C7.08355 7.39435 6.89257 7.16789 6.78003 6.90404C6.66753 6.64026 6.63819 6.35037 6.69546 6.07075C6.75274 5.79109 6.89428 5.53337 7.10314 5.33054C7.31206 5.12764 7.57895 4.98884 7.87034 4.93255C8.16176 4.87625 8.46376 4.90519 8.73792 5.01548C9.01203 5.12574 9.24539 5.3121 9.40912 5.55009C9.57281 5.788 9.65979 6.06706 9.65979 6.35203C9.65979 6.73401 9.5036 7.10158 9.22358 7.37352C8.94337 7.64566 8.5621 7.79954 8.16336 7.79954Z" fill="currentColor"/>
</svg>
