<svg width="54" height="20" viewBox="0 0 54 20" fill="none" xmlns="http://www.w3.org/2000/svg">
<path d="M22.7004 0H25.1299L25.0589 14.8718C25.0581 15.0287 24.9327 15.1526 24.7746 15.1526H22.3451L22.4162 0.280757C22.4169 0.123863 22.5423 0 22.7004 0ZM39.0977 3.90582H36.6682L36.6261 12.7249H29.8367L29.8788 3.90582H27.441C27.2829 3.90582 27.1575 4.02968 27.1567 4.18657L27.1173 12.4441C27.113 13.3359 27.3344 14.0131 27.7732 14.4672C28.212 14.9296 28.8766 15.1526 29.7502 15.1526H36.6727C37.5547 15.1526 38.2131 14.9214 38.6562 14.4672C39.0994 14.0131 39.3273 13.3359 39.3315 12.4441L39.371 4.18657C39.3801 4.02968 39.2475 3.90582 39.0977 3.90582ZM19.6584 4.54991C19.1945 4.12051 18.5132 3.90582 17.6313 3.90582H9.56057C8.67029 3.90582 7.99532 4.12051 7.52733 4.54991C7.05934 4.9793 6.82321 5.6399 6.81895 6.53172L6.78939 12.7166H0L2.28548 15.004C2.38489 15.0948 2.50942 15.1526 2.65086 15.1526H6.77775L6.75592 19.719C6.75517 19.8759 6.87939 19.9998 7.03747 19.9998H9.46701L9.49022 15.1443H17.5942C18.5178 15.1443 19.2011 14.9214 19.6442 14.4755C20.0873 14.0296 20.3152 13.3524 20.3196 12.4441L20.3478 6.52346C20.3521 5.6399 20.1223 4.9793 19.6584 4.54991ZM9.50182 12.7166L9.52487 7.89421C9.5255 7.76209 9.46789 7.62997 9.37684 7.53088L8.17611 6.33354H17.6613L17.6308 12.7166H9.50182ZM43.9945 11.6927L41.6792 12.1551C41.5376 12.1881 41.4289 12.312 41.4282 12.4606L41.427 12.7001C41.4234 13.4515 41.6203 14.0461 42.0175 14.492C42.4148 14.9379 43.0044 15.1608 43.7949 15.1608H51.4662C51.9405 15.1608 52.3736 15.07 52.7571 14.8966C53.1407 14.7232 53.4415 14.4507 53.6595 14.0956C53.8776 13.7406 53.9879 13.2864 53.9905 12.7496L53.9999 10.7678C54.0039 9.95034 53.7904 9.34754 53.3513 8.95118C52.9122 8.55482 52.3141 8.35663 51.5487 8.35663H43.9106L43.9201 6.35831H51.3918L51.3869 7.3905L53.6938 6.93634C53.8354 6.90331 53.9441 6.77944 53.9448 6.63906L53.9459 6.40785C53.9495 5.64816 53.7444 5.04536 53.3305 4.59945C52.9166 4.15354 52.3353 3.93059 51.5948 3.93059H43.7071C43.2578 3.93059 42.8663 4.02968 42.5242 4.21961C42.1822 4.40953 41.9063 4.69028 41.7131 5.06187C41.52 5.43346 41.418 5.87111 41.4156 6.37482L41.4061 8.37315C41.4025 9.12459 41.6161 9.70261 42.0385 10.099C42.4609 10.5036 43.0341 10.7018 43.7579 10.7018H51.4958L51.4861 12.7331H43.9895L43.9945 11.6927Z" fill="white"/>
</svg>
