<svg width="63" height="24" viewBox="0 0 63 24" fill="none" xmlns="http://www.w3.org/2000/svg">
<path d="M26.2566 0.102025L29.0428 0.112973L28.8952 17.062C28.8936 17.2408 28.7493 17.3814 28.568 17.3807L25.7817 17.3698L25.9293 0.420721C25.9309 0.241914 26.0753 0.101312 26.2566 0.102025ZM45.044 4.62736L42.2578 4.61641L42.1702 14.6673L34.384 14.6367L34.4716 4.58581L31.6758 4.57483C31.4945 4.57411 31.3501 4.71472 31.3486 4.89352L31.2666 14.3044C31.2577 15.3208 31.5086 16.0935 32.0099 16.6131C32.511 17.1421 33.2721 17.3992 34.274 17.4031L42.2129 17.4343C43.2244 17.4383 43.9805 17.1777 44.4907 16.6621C45.0009 16.1465 45.2653 15.3758 45.2741 14.3595L45.3561 4.94857C45.3672 4.7698 45.2158 4.62803 45.044 4.62736ZM22.7477 5.27382C22.2176 4.78235 21.4373 4.53459 20.4258 4.53062L11.1702 4.49425C10.1492 4.49024 9.37415 4.73188 8.83554 5.21915C8.29693 5.70642 8.0232 6.45824 8.01434 7.47462L7.95295 14.5234L0.166737 14.4928L2.7776 17.11C2.8912 17.2139 3.03376 17.2804 3.19597 17.281L7.92877 17.2996L7.88344 22.5038C7.88188 22.6826 8.02378 22.8244 8.20508 22.8251L10.9913 22.836L11.0395 17.3024L20.3334 17.3389C21.3925 17.3431 22.1772 17.0921 22.6873 16.5859C23.1975 16.0797 23.4618 15.309 23.4708 14.2738L23.5296 7.52617C23.5384 6.51921 23.2778 5.76529 22.7477 5.27382ZM20.3765 14.5722L11.0636 14.5356L11.1115 9.03964C11.1128 8.88906 11.0473 8.73823 10.9433 8.62488L9.57165 7.25487L20.4494 7.29761L20.3861 14.5722L20.3765 14.5722ZM50.6148 14.7004L50.6251 13.5241L47.9678 14.0407C47.8053 14.0777 47.68 14.2183 47.6785 14.3877L47.6762 14.6607C47.6687 15.517 47.8918 16.1955 48.3454 16.7055C48.799 17.2155 49.4742 17.4723 50.3807 17.4758L59.1784 17.5104C59.7223 17.5125 60.2193 17.411 60.66 17.2151C61.1006 17.0192 61.4469 16.7099 61.6985 16.3062C61.9501 15.9026 62.0786 15.3854 62.084 14.7737L62.1036 12.5151C62.1118 11.5834 61.8697 10.8955 61.3679 10.4418C60.8661 9.98805 60.181 9.75949 59.3032 9.75604L50.5437 9.72162L50.5635 7.44418L59.1322 7.47785L59.1219 8.65421L61.7695 8.147C61.9321 8.10999 62.0574 7.96932 62.0588 7.80933L62.061 7.54583C62.0686 6.68003 61.836 5.99209 61.3634 5.48203C60.8907 4.97197 60.225 4.71525 59.3757 4.71191L50.33 4.67636C49.8147 4.67434 49.3653 4.78551 48.9722 5.00042C48.5791 5.21533 48.2614 5.53407 48.0382 5.95669C47.8151 6.37932 47.6962 6.87765 47.6912 7.45172L47.6714 9.72915C47.6639 10.5855 47.9063 11.2453 48.389 11.6989C48.8716 12.162 49.528 12.3904 50.3582 12.3937L59.2322 12.4285L59.212 14.7436L50.6147 14.7098L50.6148 14.7004Z" fill="#002F6C"/>
<path d="M26.2566 0.102025L29.0428 0.112973L28.8952 17.062C28.8936 17.2408 28.7493 17.3814 28.568 17.3807L25.7817 17.3698L25.9293 0.420721C25.9309 0.241914 26.0753 0.101312 26.2566 0.102025ZM45.044 4.62736L42.2578 4.61641L42.1702 14.6673L34.384 14.6367L34.4716 4.58581L31.6758 4.57483C31.4945 4.57411 31.3501 4.71472 31.3486 4.89352L31.2666 14.3044C31.2577 15.3208 31.5086 16.0935 32.0099 16.6131C32.511 17.1421 33.2721 17.3992 34.274 17.4031L42.2129 17.4343C43.2244 17.4383 43.9805 17.1777 44.4907 16.6621C45.0009 16.1465 45.2653 15.3758 45.2741 14.3595L45.3561 4.94857C45.3672 4.7698 45.2158 4.62803 45.044 4.62736ZM22.7477 5.27382C22.2176 4.78235 21.4373 4.53459 20.4258 4.53062L11.1702 4.49425C10.1492 4.49024 9.37415 4.73188 8.83554 5.21915C8.29693 5.70642 8.0232 6.45824 8.01434 7.47462L7.95295 14.5234L0.166737 14.4928L2.7776 17.11C2.8912 17.2139 3.03376 17.2804 3.19597 17.281L7.92877 17.2996L7.88344 22.5038C7.88188 22.6826 8.02378 22.8244 8.20508 22.8251L10.9913 22.836L11.0395 17.3024L20.3334 17.3389C21.3925 17.3431 22.1772 17.0921 22.6873 16.5859C23.1975 16.0797 23.4618 15.309 23.4708 14.2738L23.5296 7.52617C23.5384 6.51921 23.2778 5.76529 22.7477 5.27382ZM20.3765 14.5722L11.0636 14.5356L11.1115 9.03964C11.1128 8.88906 11.0473 8.73823 10.9433 8.62488L9.57165 7.25487L20.4494 7.29761L20.3861 14.5722L20.3765 14.5722ZM50.6148 14.7004L50.6251 13.5241L47.9678 14.0407C47.8053 14.0777 47.68 14.2183 47.6785 14.3877L47.6762 14.6607C47.6687 15.517 47.8918 16.1955 48.3454 16.7055C48.799 17.2155 49.4742 17.4723 50.3807 17.4758L59.1784 17.5104C59.7223 17.5125 60.2193 17.411 60.66 17.2151C61.1006 17.0192 61.4469 16.7099 61.6985 16.3062C61.9501 15.9026 62.0786 15.3854 62.084 14.7737L62.1036 12.5151C62.1118 11.5834 61.8697 10.8955 61.3679 10.4418C60.8661 9.98805 60.181 9.75949 59.3032 9.75604L50.5437 9.72162L50.5635 7.44418L59.1322 7.47785L59.1219 8.65421L61.7695 8.147C61.9321 8.10999 62.0574 7.96932 62.0588 7.80933L62.061 7.54583C62.0686 6.68003 61.836 5.99209 61.3634 5.48203C60.8907 4.97197 60.225 4.71525 59.3757 4.71191L50.33 4.67636C49.8147 4.67434 49.3653 4.78551 48.9722 5.00042C48.5791 5.21533 48.2614 5.53407 48.0382 5.95669C47.8151 6.37932 47.6962 6.87765 47.6912 7.45172L47.6714 9.72915C47.6639 10.5855 47.9063 11.2453 48.389 11.6989C48.8716 12.162 49.528 12.3904 50.3582 12.3937L59.2322 12.4285L59.212 14.7436L50.6147 14.7098L50.6148 14.7004Z" fill="url(#paint0_linear)"/>
<defs>
<linearGradient id="paint0_linear" x1="0.193239" y1="11.3955" x2="62.1071" y2="11.9347" gradientUnits="userSpaceOnUse">
<stop stop-color="#8A959C"/>
<stop offset="0.4" stop-color="#99A4AB"/>
<stop offset="0.64" stop-color="#C4C7BC"/>
<stop offset="0.7" stop-color="#E0C18D"/>
<stop offset="0.76" stop-color="#F0826B"/>
<stop offset="0.82" stop-color="#D60D4C"/>
<stop offset="0.88" stop-color="#78368C"/>
<stop offset="0.94" stop-color="#3A5BA7"/>
<stop offset="1" stop-color="#0087CC"/>
</linearGradient>
</defs>
</svg>
