<svg viewBox="0 0 32 32" fill="currentColor" xmlns="http://www.w3.org/2000/svg">
<path d="M25.8985 23.0435C25.8985 23.0435 25.8318 22.365 25.7609 21.6908C25.7193 21.2964 25.6859 20.9826 25.6609 20.7579C25.6109 20.2872 25.6026 20.2151 25.5109 20.1727C25.2525 19.8928 24.9732 19.6129 24.7107 19.35L24.6982 19.3373C24.5565 19.1973 24.4189 19.0616 24.2814 18.9217L23.0352 17.658C22.5476 17.1576 21.9766 16.8905 21.3848 16.8905C20.8013 16.8905 20.2303 17.1534 19.7385 17.658L19.7343 17.6623C19.6093 17.7895 19.4801 17.9209 19.3509 18.0482C19.23 18.1669 19.0842 18.3111 18.9425 18.4595C18.7174 18.6885 18.5298 18.8878 18.359 19.0744C17.7796 18.803 17.2045 18.4298 16.5085 17.8701C16.1334 17.5563 15.4874 16.9414 15.2248 16.6912C14.9414 16.3859 14.4287 15.8219 14.1537 15.4826C13.5994 14.7702 13.2326 14.185 12.9659 13.5998C13.1534 13.426 13.3451 13.2351 13.5702 13.0062C13.7119 12.862 13.8536 12.7136 13.9745 12.5863C14.0995 12.4549 14.2287 12.3234 14.3537 12.1962C14.8455 11.6958 15.1081 11.1149 15.1081 10.5212C15.1081 9.91905 14.8497 9.34234 14.3537 8.84619L13.1117 7.58251C12.97 7.43834 12.8366 7.2984 12.6991 7.15422L12.6908 7.14574C12.4365 6.87859 12.1615 6.59447 11.8822 6.33156C11.8405 6.23826 11.7697 6.22978 11.3071 6.1789C11.0862 6.15345 10.7778 6.11953 10.3902 6.07712C9.72331 6.00503 9.06064 5.93719 9.06064 5.93719L8.96478 5.91174L6.08484 8.84195L6.60581 13.5235L6.60998 13.5489L6.61832 13.5744C7.35601 15.6141 8.46881 17.5054 10.1193 19.5196C10.3401 19.7868 10.7027 20.1896 10.9987 20.5077V18.7351C9.47742 16.8693 8.4438 15.1307 7.75612 13.2733L7.306 9.27449L9.39406 7.14998C10.2026 7.23479 10.8945 7.31112 11.2612 7.35353C11.4696 7.55707 11.678 7.77334 11.8531 7.95992L11.8656 7.97264C12.0073 8.12106 12.1406 8.261 12.2907 8.41366L13.5368 9.68158C13.7244 9.86816 13.9453 10.165 13.9453 10.517C13.9453 10.8647 13.7202 11.1615 13.5327 11.3566C13.4035 11.488 13.2701 11.6237 13.1409 11.7594C13.0242 11.8782 12.8867 12.0224 12.745 12.1665C12.4907 12.4252 12.274 12.633 12.0698 12.8238L11.5613 13.2945L11.8322 13.9348C12.1448 14.6684 12.5782 15.3724 13.2368 16.2205L13.2451 16.2332C13.4868 16.5343 13.8786 16.9711 14.187 17.3061L14.1745 17.3188L14.3954 17.5308C14.4496 17.5902 14.5038 17.6453 14.5496 17.6962L14.6955 17.8531L14.7122 17.8361C15.0456 18.1499 15.4707 18.5485 15.7708 18.7945L15.7833 18.803C16.6168 19.473 17.3087 19.914 18.0297 20.232L18.659 20.5077L19.1217 19.9903C19.3092 19.7825 19.5134 19.562 19.7677 19.3034C19.9052 19.1634 20.0386 19.0277 20.1678 18.9047C20.3053 18.7733 20.4345 18.6376 20.5637 18.5061C20.7513 18.3153 21.0472 18.0863 21.3848 18.0863C21.7265 18.0863 22.0183 18.3111 22.2058 18.5019L23.452 19.7698C23.5979 19.9182 23.7396 20.0582 23.8854 20.2023L23.8979 20.2151C24.0813 20.3974 24.2939 20.6094 24.4939 20.8172C24.5356 21.1904 24.6106 21.8901 24.694 22.717L22.6059 24.8415L18.6799 24.3878C16.8419 23.6838 15.1289 22.6279 13.2868 21.0717C13.1576 20.9614 12.9867 20.8087 12.8116 20.6434V22.2124C14.6913 23.7644 16.471 24.8288 18.384 25.5454L18.409 25.5539L23.0352 26.0882L25.9152 23.158L25.8985 23.0435Z" fill="currentColor"/>
</svg>
