<svg viewBox="0 0 32 32" fill="currentColor" xmlns="http://www.w3.org/2000/svg">
<path d="M18.0539 5.80007C16.4962 5.79629 14.9702 6.2404 13.6577 7.0795C12.3452 7.91865 11.3014 9.11747 10.6509 10.5332C10.0003 11.9488 9.77039 13.5217 9.98841 15.0644C10.1978 16.5457 10.8117 17.9392 11.7608 19.0924L5.71716 25.1369L6.86293 26.2829L14.0446 19.102C12.6762 17.9728 11.742 16.4475 11.5299 14.6659C11.3299 12.9856 11.7852 11.2928 12.8011 9.93949C13.8169 8.58621 15.3152 7.67661 16.9843 7.39979C18.6535 7.12298 20.3651 7.50025 21.7633 8.45317C23.1615 9.40609 24.1387 10.8613 24.4917 12.5163C24.8447 14.1713 24.5463 15.8987 23.6586 17.3393C22.7709 18.78 21.3622 19.8229 19.7254 20.2515C18.2633 20.6342 16.7587 20.4791 15.3959 19.8907L14.2363 21.124C15.196 21.6227 16.2201 21.9549 17.3149 22.0551C18.569 22.1698 19.8326 21.9921 21.0065 21.5358C22.1803 21.0796 23.2323 20.3573 24.0799 19.4257C24.9274 18.4941 25.5474 17.3786 25.891 16.1668C26.2346 14.9551 26.2925 13.6801 26.0602 12.4422C25.828 11.2043 25.3118 10.0371 24.5522 9.03246C23.7927 8.02779 22.8105 7.21299 21.6829 6.65212C20.5554 6.09129 19.3132 5.79964 18.0539 5.80007Z" fill="currentColor"/>
</svg>
